<svg xmlns="http://www.w3.org/2000/svg" viewBox="0 0 99.8 100"><g id="f7b9f92e-0372-4ec1-be8f-68e7d1350a9c" data-name="Layer 2"><g id="e047012b-9e0d-43f9-9189-ad1855ee024a" data-name="Layer 1"><path d="M49.29,100H0V53.26a1.8,1.8,0,0,1,.08.39,48.78,48.78,0,0,0,1.23,8.24,1.18,1.18,0,0,0,.27.52C2.81,63.65,4,64.9,5.3,66.1A23.78,23.78,0,0,0,12,70.64c.29.13.6.23.9.35l.14-.14a43,43,0,0,1-5.36-18.6H22a84.09,84.09,0,0,0,1.3,9.88c1.37-.66,2.66-1.29,4-1.9a.58.58,0,0,0,.36-.72c-.23-1.75-.44-3.5-.64-5.25-.07-.67-.09-1.34-.14-2h.68c5.11,0,10.22,0,15.33,0A2.78,2.78,0,0,0,44,51.93c1.58-.73,3.15-1.49,4.72-2.26,1-.51,2-1.06,3-1.53V27.56l1.09-.06c2.73-.2,5.45-.35,8.17-.61,2.18-.21,4.34-.56,6.51-.84.74-.1.84,0,1.1.65a62.56,62.56,0,0,1,3.31,12.09c.26,1.53.45,3.07.67,4.61,0,0,.08,0,.1,0C74,42,75.25,40.56,76.53,39.14a.83.83,0,0,0,.09-.61,69.83,69.83,0,0,0-3.75-12.59c-.37-1-.38-1,.61-1.29L81.11,22a.49.49,0,0,1,.65.16c.37.45.78.87,1.22,1.35A4.71,4.71,0,0,0,83.1,23a3.09,3.09,0,0,0,.08-.61,12,12,0,0,0-.67-4.8C80.15,11.56,76.36,6.85,70.2,4.26A49.44,49.44,0,0,0,50.86.07c-.36,0-.71,0-1.06-.07h50V47.86c0-.23-.08-.46-.09-.7-.06-.86-.09-1.73-.15-2.59A51,51,0,0,0,97.62,35c-.1-.38-.25-.75-.4-1.18a8.16,8.16,0,0,0-.76.59c-1.74,1.71-3.49,3.42-5.22,5.14a.64.64,0,0,0-.11.49c.25,1.55.55,3.1.77,4.66.15,1.05.19,2.12.29,3.24h-5.6c-2.78,0-5.57,0-8.35,0-.4,0-.53-.12-.55-.5s-.14-1-.22-1.58c-1.44.12-2.86.23-4.27.36a.51.51,0,0,0-.5.63c0,.35,0,.7.08,1.08h-.55c-4.36,0-8.72.07-13.08.09-.39,0-.58.08-.66.49-.21,1-.47,1.94-.7,2.91,0,.17,0,.36-.08.62,5,.25,10,.09,15,.16v.63a54.86,54.86,0,0,1-2.92,15.85c-.67,2-1.5,3.88-2.26,5.82a.78.78,0,0,1-1,.5c-2.4-.37-4.79-.77-7.2-1-2.19-.24-4.4-.31-6.59-.46-.42,0-.61.13-.72.56C51,78.38,49.85,82.66,48.75,87c-.21.83-.45,1.66-.68,2.52l-.68-.31v3.16c-.8-.09-1.47-.19-2.14-.23a3.62,3.62,0,0,1-2.71-1.42c-.68-.82-1.4-1.61-2.07-2.44-.8-1-1.56-2-2.33-3A.76.76,0,0,0,37.08,85c-.75.34-1.54.61-2.31.92l-1.21.51,2.27,3.36-.12.11c-.18-.06-.36-.09-.53-.16-1.37-.59-2.78-1.1-4.09-1.8a3.94,3.94,0,0,0-2.79-.38,25,25,0,0,1-10.51-.14l-1.24-.28a2,2,0,0,0,.55.65,57.35,57.35,0,0,0,7.29,5.19,49.06,49.06,0,0,0,22,6.89C47.33,99.89,48.31,99.94,49.29,100ZM46.17,84.5c3-11.48,5.89-22.85,8.71-34.24l-.17-.11L20.39,67l.4.26c1.78,1.08,3.56,2.17,5.35,3.24.36.22.39.44.15.77a7.68,7.68,0,0,1-2.56,2.35,12.91,12.91,0,0,1-8.26,1.15,22.32,22.32,0,0,1-9.74-4.25C5,70,4.35,69.43,3.61,68.82c.05.26.08.46.13.65A19.58,19.58,0,0,0,9,78.77a19.77,19.77,0,0,0,10,5.69,25.32,25.32,0,0,0,10.4-.3,39.92,39.92,0,0,0,9.8-3.6.7.7,0,0,1,.78,0q2,1.32,4,2.59C44.69,83.63,45.39,84,46.17,84.5ZM77.9,42.63a1.45,1.45,0,0,0,.27,0,5.66,5.66,0,0,0,.59-.15,34.31,34.31,0,0,0,7.46-3.44,44.64,44.64,0,0,0,9-7.76,1.63,1.63,0,0,0,.55-1.56,10.26,10.26,0,0,1-.12-1.37,21.51,21.51,0,0,0-5.87-13A26.41,26.41,0,0,0,81.68,10a2,2,0,0,0-.32,0c.33.35.57.62.83.88a12.31,12.31,0,0,1,3.16,5.2A19.63,19.63,0,0,1,85.91,25a31.79,31.79,0,0,1-7.43,16.88C78.29,42.06,78.13,42.32,77.9,42.63Z" fill="#fff"/><path d="M49.8,0c.35,0,.7.07,1.06.07A49.44,49.44,0,0,1,70.2,4.26c6.16,2.59,10,7.3,12.31,13.36a12,12,0,0,1,.67,4.8,3.09,3.09,0,0,1-.08.61,4.71,4.71,0,0,1-.12.48c-.44-.48-.85-.9-1.22-1.35a.49.49,0,0,0-.65-.16l-7.63,2.65c-1,.34-1,.33-.61,1.29a69.83,69.83,0,0,1,3.75,12.59.83.83,0,0,1-.09.61C75.25,40.56,74,42,72.66,43.38c0,0-.06,0-.1,0-.22-1.54-.41-3.08-.67-4.61A62.56,62.56,0,0,0,68.58,26.7c-.26-.68-.36-.75-1.1-.65-2.17.28-4.33.63-6.51.84-2.72.26-5.44.41-8.17.61l-1.09.06V48.14c-.91.47-1.92,1-3,1.53-1.57.77-3.14,1.53-4.72,2.26a2.78,2.78,0,0,1-1.16.27c-5.11,0-10.22,0-15.33,0h-.68c.05.71.07,1.38.14,2,.2,1.75.41,3.5.64,5.25a.58.58,0,0,1-.36.72c-1.3.61-2.59,1.24-4,1.9A84.09,84.09,0,0,1,22,52.25H7.63A43,43,0,0,0,13,70.85l-.14.14c-.3-.12-.61-.22-.9-.35A23.78,23.78,0,0,1,5.3,66.1C4,64.9,2.81,63.65,1.58,62.41a1.18,1.18,0,0,1-.27-.52A48.78,48.78,0,0,1,.08,53.65,1.8,1.8,0,0,0,0,53.26V48a4,4,0,0,0,.08-.59,43,43,0,0,1,2.43-13.3A50.13,50.13,0,0,1,45.18.19C46,.11,46.9.06,47.76,0ZM47.32,47.94V27.49c-1.62-.12-3.2-.18-4.76-.36-3.6-.43-7.2-.91-10.79-1.4a.58.58,0,0,0-.75.44C30.53,27.6,30,29,29.53,30.44A63.87,63.87,0,0,0,27,45.09c-.06.94-.1,1.88-.14,2.85ZM27.1,24.71c-.5-.13-.92-.21-1.32-.35-2.32-.84-4.64-1.68-7-2.55-.29-.11-.48-.12-.69.14-.39.49-.83.94-1.22,1.43A43,43,0,0,0,7.76,45.55c-.09.79-.09,1.58-.13,2.39H22.07A67.07,67.07,0,0,1,27.1,24.71Zm39.06-3.16a.59.59,0,0,0,0-.13c-.25-.42-.5-.84-.76-1.26A51.62,51.62,0,0,0,55.89,8.79c-1.27-1.13-2.76-1-4.24-1.17V23.24A113.22,113.22,0,0,0,66.16,21.55Zm-18.8,1.74v-.53q0-5.85,0-11.71c0-.79,0-1.59-.06-2.39-.06-1-.08-1-1.08-.92a5.87,5.87,0,0,0-4,1.62A49,49,0,0,0,33.5,20.78c-.12.22-.2.46-.3.68C34.15,22,44.07,23.23,47.36,23.29ZM78.1,18.65l.06-.19A41.88,41.88,0,0,0,62.78,9.73a3.45,3.45,0,0,0,.56.86,55.05,55.05,0,0,1,6.73,9.72.69.69,0,0,0,.93.41c2-.58,4.11-1.13,6.16-1.71C77.48,18.92,77.79,18.77,78.1,18.65ZM35.88,10.12h-.27l-.54.18a38.86,38.86,0,0,0-7.83,3.95c-1.65,1.11-3.23,2.31-4.82,3.49a3.92,3.92,0,0,0-.65.8,7.24,7.24,0,0,0,.93.54,11.71,11.71,0,0,0,1.46.43c1.49.37,3,.71,4.49,1.08.31.07.45-.06.59-.32A63.63,63.63,0,0,1,35.32,11C35.51,10.72,35.66,10.46,35.88,10.12Z"/><path d="M49.29,100c-1-.06-2-.11-2.94-.18a49.06,49.06,0,0,1-22-6.89,57.35,57.35,0,0,1-7.29-5.19,2,2,0,0,1-.55-.65l1.24.28a25,25,0,0,0,10.51.14,3.94,3.94,0,0,1,2.79.38c1.31.7,2.72,1.21,4.09,1.8.17.07.35.1.53.16l.12-.11-2.27-3.36,1.21-.51c.77-.31,1.56-.58,2.31-.92a.76.76,0,0,1,1.06.26c.77,1,1.53,2,2.33,3,.67.83,1.39,1.62,2.07,2.44a3.62,3.62,0,0,0,2.71,1.42c.67,0,1.34.14,2.14.23V89.16l.68.31c.23-.86.47-1.69.68-2.52,1.1-4.29,2.2-8.57,3.27-12.86.11-.43.3-.59.72-.56,2.19.15,4.4.22,6.59.46,2.41.27,4.8.67,7.2,1a.78.78,0,0,0,1-.5c.76-1.94,1.59-3.85,2.26-5.82a54.86,54.86,0,0,0,2.92-15.85v-.63c-5-.07-10,.09-15-.16,0-.26,0-.45.08-.62.23-1,.49-1.94.7-2.91.08-.41.27-.49.66-.49,4.36,0,8.72-.06,13.08-.09h.55c0-.38,0-.73-.08-1.08a.51.51,0,0,1,.5-.63c1.41-.13,2.83-.24,4.27-.36.08.58.18,1.07.22,1.58s.15.5.55.5c2.78,0,5.57,0,8.35,0h5.6c-.1-1.12-.14-2.19-.29-3.24-.22-1.56-.52-3.11-.77-4.66a.64.64,0,0,1,.11-.49c1.73-1.72,3.48-3.43,5.22-5.14a8.16,8.16,0,0,1,.76-.59c.15.43.3.8.4,1.18a51,51,0,0,1,1.94,9.55c.06.86.09,1.73.15,2.59,0,.24.06.47.09.7v5c0,.18-.06.37-.08.55-.3,2.23-.47,4.49-.91,6.69A48.68,48.68,0,0,1,84.62,85.84a49.12,49.12,0,0,1-33,14.07L49.9,100ZM72.08,76.34c.12.07.16.11.21.13,2.61.93,5.23,1.87,7.85,2.78a.64.64,0,0,0,.53-.2,44.45,44.45,0,0,0,8.24-12.64,44,44,0,0,0,3-11.25c.14-.95.16-1.92.24-2.95H86.34l-8.1,0c-.37,0-.54.09-.55.51,0,.81-.12,1.62-.18,2.43a61.28,61.28,0,0,1-3.64,16.43C73.29,73.19,72.68,74.75,72.08,76.34Zm-20.43,16c1-.11,2-.24,2.93-.3a3.67,3.67,0,0,0,2.72-1.35,64.77,64.77,0,0,0,7.32-10.25c.18-.32.35-.65.57-1.07a107.59,107.59,0,0,0-13.54-1.73Zm12.42-2.61.1.09A44.39,44.39,0,0,0,77,82.5c-.52-.2-1-.4-1.41-.54-1.63-.5-3.27-1-4.91-1.46-.31-.09-.67-.27-.94.18q-2.55,4.13-5.14,8.23C64.44,89.19,64.25,89.47,64.07,89.76Z"/><path d="M49.9,100l1.72-.09a49.12,49.12,0,0,0,33-14.07A48.68,48.68,0,0,0,98.81,60.09c.44-2.2.61-4.46.91-6.69,0-.18,0-.37.08-.55V100Z" fill="#fff"/><path d="M47.76,0C46.9.06,46,.11,45.18.19A50.13,50.13,0,0,0,2.51,34.07,43,43,0,0,0,.08,47.37,4,4,0,0,1,0,48V0Z" fill="#fff"/><path d="M46.17,84.5c-.78-.47-1.48-.87-2.16-1.3q-2-1.28-4-2.59a.7.7,0,0,0-.78,0,39.92,39.92,0,0,1-9.8,3.6,25.32,25.32,0,0,1-10.4.3A19.77,19.77,0,0,1,9,78.77a19.58,19.58,0,0,1-5.3-9.3c-.05-.19-.08-.39-.13-.65.74.61,1.4,1.2,2.12,1.72a22.32,22.32,0,0,0,9.74,4.25,12.91,12.91,0,0,0,8.26-1.15,7.68,7.68,0,0,0,2.56-2.35c.24-.33.21-.55-.15-.77-1.79-1.07-3.57-2.16-5.35-3.24l-.4-.26L54.71,50.15l.17.11C52.06,61.65,49.14,73,46.17,84.5Z"/><path d="M77.9,42.63c.23-.31.39-.57.58-.79A31.79,31.79,0,0,0,85.91,25a19.63,19.63,0,0,0-.56-8.91,12.31,12.31,0,0,0-3.16-5.2c-.26-.26-.5-.53-.83-.88a2,2,0,0,1,.32,0,26.41,26.41,0,0,1,8.08,5.37,21.51,21.51,0,0,1,5.87,13,10.26,10.26,0,0,0,.12,1.37,1.63,1.63,0,0,1-.55,1.56,44.64,44.64,0,0,1-9,7.76,34.31,34.31,0,0,1-7.46,3.44,5.66,5.66,0,0,1-.59.15A1.45,1.45,0,0,1,77.9,42.63Z"/><path d="M47.32,47.94H26.86c0-1,.08-1.91.14-2.85a63.87,63.87,0,0,1,2.53-14.65C30,29,30.53,27.6,31,26.17a.58.58,0,0,1,.75-.44c3.59.49,7.19,1,10.79,1.4,1.56.18,3.14.24,4.76.36Z" fill="#fff"/><path d="M27.1,24.71a67.07,67.07,0,0,0-5,23.23H7.63c0-.81,0-1.6.13-2.39a43,43,0,0,1,9.15-22.17c.39-.49.83-.94,1.22-1.43.21-.26.4-.25.69-.14,2.32.87,4.64,1.71,7,2.55C26.18,24.5,26.6,24.58,27.1,24.71Z" fill="#fff"/><path d="M66.16,21.55a113.22,113.22,0,0,1-14.51,1.69V7.62c1.48.19,3,0,4.24,1.17a51.62,51.62,0,0,1,9.46,11.37c.26.42.51.84.76,1.26A.59.59,0,0,1,66.16,21.55Z" fill="#fff"/><path d="M47.36,23.29C44.07,23.23,34.15,22,33.2,21.46c.1-.22.18-.46.3-.68A49,49,0,0,1,42.17,9.36a5.87,5.87,0,0,1,4-1.62c1,0,1-.06,1.08.92.05.8.06,1.6.06,2.39q0,5.86,0,11.71Z" fill="#fff"/><path d="M78.1,18.65c-.31.12-.62.27-.94.36-2,.58-4.11,1.13-6.16,1.71a.69.69,0,0,1-.93-.41,55.05,55.05,0,0,0-6.73-9.72,3.45,3.45,0,0,1-.56-.86,41.88,41.88,0,0,1,15.38,8.73Z" fill="#fff"/><path d="M35.88,10.12c-.22.34-.37.6-.56.84a63.63,63.63,0,0,0-6.08,9.31c-.14.26-.28.39-.59.32-1.5-.37-3-.71-4.49-1.08a11.71,11.71,0,0,1-1.46-.43,7.24,7.24,0,0,1-.93-.54,3.92,3.92,0,0,1,.65-.8c1.59-1.18,3.17-2.38,4.82-3.49a38.86,38.86,0,0,1,7.83-3.95l.54-.18Z" fill="#fff"/><path d="M72.08,76.34c.6-1.59,1.21-3.15,1.79-4.72a61.28,61.28,0,0,0,3.64-16.43c.06-.81.16-1.62.18-2.43,0-.42.18-.51.55-.51l8.1,0h5.84c-.08,1-.1,2-.24,2.95a44,44,0,0,1-3,11.25,44.45,44.45,0,0,1-8.24,12.64.64.64,0,0,1-.53.2c-2.62-.91-5.24-1.85-7.85-2.78C72.24,76.45,72.2,76.41,72.08,76.34Z" fill="#fff"/><path d="M51.65,92.37V77.67A107.59,107.59,0,0,1,65.19,79.4c-.22.42-.39.75-.57,1.07A64.77,64.77,0,0,1,57.3,90.72a3.67,3.67,0,0,1-2.72,1.35C53.61,92.13,52.66,92.26,51.65,92.37Z" fill="#fff"/><path d="M64.07,89.76c.18-.29.37-.57.55-.85q2.58-4.11,5.14-8.23c.27-.45.63-.27.94-.18,1.64.46,3.28,1,4.91,1.46.45.14.89.34,1.41.54a44.39,44.39,0,0,1-12.85,7.35Z" fill="#fff"/></g></g></svg>