<svg id="Layer_1" data-name="Layer 1" xmlns="http://www.w3.org/2000/svg" viewBox="0 0 385 408.96"><path d="M0,357V0H385V410H0V359H46.9l.18-1.81c-1.83-.4-3.67-.77-5.49-1.2-5.7-1.32-8.53-4.73-8.55-10.58a50.23,50.23,0,0,1,.6-7.45q4.14-27.31,8.39-54.61,4.83-31.23,9.7-62.46c3.48-22.46,6.9-44.93,10.4-67.39,1-6.79,2.25-13.57,3.61-21.72,1.94,3.41,3.24,5.48,4.33,7.66,4.18,8.3,8.49,16.56,12.33,25a24.56,24.56,0,0,1,2.46,10.39C84.1,204,83,233.12,82,262.25c-1,30.95-1.8,61.91-3.34,92.83a146.31,146.31,0,0,1-5,29.86c-2.45,9.24-7.55,17.06-18.2,19.16-1.34.27-2.42,1.84-3.62,2.8,1.35.57,2.7,1.61,4,1.62q25.25.17,50.5,0c1.57,0,3.13-1.3,4.7-2-1.31-1.17-2.43-2.84-4-3.41-9.56-3.58-15.74-10.24-17.11-20.28-1.65-12-3.31-24.07-3.26-36.11.12-25,1.43-49.94,2.12-74.91.79-28.31,1.43-56.62,2.16-84.93a14,14,0,0,1,.79-2.69c.73,1.24,1.07,1.77,1.35,2.33Q120.15,240.73,147,295c2.28,4.61,5.24,9.07,6.5,14,3.85,14.92,7.08,30,10.44,45,3.85,17.27,7.59,34.56,11.38,51.84,3.45-11.63,6-23.27,8.72-34.85,2.64-11.1,3.88-22.92,8.64-33.06,20.53-43.76,42.11-87,63.36-130.43,2.43-5,5.21-9.76,7.82-14.63l1.66.23c0,9.22-.2,18.44,0,27.65,1,39.63,2.29,79.26,3.17,118.89a324.05,324.05,0,0,1-.91,35.4c-1.2,13.73-6.51,25.11-21.51,29.06-1.15.3-1.86,2.24-3.47,4.3h77.53c1.51-3.82-.91-4.07-3.4-4.32-10-1-16.61-6.47-18.71-16a196.43,196.43,0,0,1-4.83-32.4c-1.18-23.45-1.36-46.94-2-70.42-1.16-45.13-2.2-90.26-3.65-135.38-.22-6.83,2.17-12,6.3-17.61.39,1.4.68,2.15.81,2.92q2.35,14.73,4.69,29.48,4.68,29.51,9.38,59,5.37,33.93,10.65,67.85c2.68,17.23,5.35,34.45,7.82,51.7,1,7-2.31,11.33-9.27,13-1.43.35-2.82.87-4.23,1.31.09.31.18.63.28.94h69.54l.26-1.33c-1.62-.38-3.23-.83-4.86-1.15-5-1-10-2.31-12.18-7.49-2-4.7-4-9.56-4.86-14.54-2.86-16.34-5.22-32.76-7.77-49.15q-4.68-30-9.36-60c-3.5-22.29-7.1-44.56-10.52-66.86-2.37-15.42-4.84-30.83-6.64-46.32-1.59-13.59,5.27-22.13,18.77-24.82,1.94-.38,3.85-.95,5.78-1.43l-.13-1.33c-1.54-.08-3.09-.22-4.63-.22-10.83,0-21.73.74-32.48-.24-9.27-.84-14.24,2.18-17.26,10.92-2.49,7.18-6.56,13.81-9.93,20.68l-1.3-.37c0-3.8,0-7.61,0-11.41-.2-23.8-.79-47.6-.48-71.39.18-13.61,8.57-23.26,21.25-27.1,1.18-.35,1.95-2.1,3.68-4.08H260.19c-22.89,102.22-45.74,204.24-68.91,307.7-6.21-12.88-11.81-24.34-17.26-35.87a72,72,0,0,1-5-12.37c-2.48-9.62-4.43-19.38-6.6-29.09-7.4-33.15-14.88-66.3-22.18-99.47-9.59-43.52-19-87.06-28.68-131.17-17.57,0-35,0-52.47.1-.83,0-1.64,1.43-2.46,2.2.93.69,1.86,2,2.8,2C70.16,5,77.13,11.17,82.18,19.63c3.09,5.16,6.82,11.05,6.94,16.68.39,18.29-.75,36.61-1.35,54.92a15.7,15.7,0,0,1-.88,3.12,31.1,31.1,0,0,1-2.37-4.68c-1.37-4.7-4.19-6.1-9.16-6-15.82.38-31.66.13-47.49.16-1.64,0-3.27.25-4.9.39C23.7,85.62,24.4,86,25.12,86c16.4.91,25,11.42,31,25.13a9.05,9.05,0,0,1,.21,4.78Q50.23,154.8,44,193.61c-3.86,23.92-7.85,47.81-11.68,71.72-3.2,20-6.12,40-9.44,60a215,215,0,0,1-5,22.27c-1.38,5-4.79,8.25-10.44,8.5C4.94,356.19,2.47,356.68,0,357Z" fill="none"/><path d="M22.84,325.47c6.94-43.92,13.85-87.84,21.12-131.7,3.57-27.42,10.53-55,12.18-82.44-6-13.71-14.62-24.23-31-25.14-.72,0-1.42-.42-2.15-1.8,17.41-1,34.94.14,52.39-.55,7.88-.75,8.33,4.94,11.53,10.66,2.65-19.09,2-38.73,2.23-58C86.44,22.36,76,5.13,59.42,5c-.94,0-1.87-1.3-2.8-2,.82-.76,1.63-2.19,2.46-2.2C76.53.7,94,.73,111.55.73c19,87.15,37.64,173.06,57.46,259.74,6,16.93,14.36,30.83,22.27,48.23,23.17-103.45,46-205.47,68.91-307.7h50.9c-1.73,2-2.49,3.73-3.68,4.09-12.69,3.84-21.09,13.5-21.27,27.13-.39,27.62.56,55.25.49,82.88l1.32.31c21.52-43.25,7.65-29.17,64.34-31.11l.13,1.33c-14.83,2.33-27.12,9.73-24.58,26.28,4.78,37.89,11.39,75.54,17.18,113.29,5.84,36.4,11.08,72.91,17.15,109.27,3.19,14.38,6.07,21.38,21.92,23.2l-.26,1.33H314.24s-.19-1.14-.28-1.45c7.75-1.85,15.28-5.11,13.5-14.35-2.47-17.25-5.14-34.47-7.82-51.7-8.56-53.07-16.14-106.32-25.53-159.24-4.13,5.64-6.52,10.78-6.3,17.61,2.41,68.58,3.14,137.24,5.62,205.8,2.66,17.36,0,46.39,23.54,48.37,2.49.25,3.4,4,3.4,4H241.09c1.59-2,2.3-4,3.44-4.26,14.9-3.93,20.17-15.22,21.36-28.85,3.06-60.08-3.28-120.3-2.28-180.42l-1.65-.42c-24.74,47.37-47.57,95.79-70.66,144-8.22,21.47-10,45.31-17.23,67.42-7.14-32.07-13.72-64.29-21.67-96.17-19.47-41.6-40.66-82.67-61.16-123.86-3,53.49-3.33,107.64-5,161.36-.06,11.95,1.6,24,3.23,35.85,2.28,15.53,11.19,15.35,20.93,23.52-1.56.69-3.11,2-4.67,2-17.84-1-37,2.6-54.15-1.58,1.19-1,2.26-2.52,3.59-2.78,10.57-2.09,15.64-9.86,18.07-19,9.3-39.75,5.51-81.29,8.23-121.81-.85-32.09,6.44-65.71.37-97.08-5.41-11.39-10-21.25-16.54-32.44-8.41,50.56-15.53,100-23.55,150.47Q37.53,311,33.4,338.11c-2.74,10.3,2.31,18.55,13.3,19.09l-.19,1.8H0v-2c7.17-.85,16.21-.84,17.86-9.43a214.21,214.21,0,0,0,5-22.26m180.82-41.09,1.13.14c18.77-36.78,36.3-74.23,54.84-111.13,3.28-6.6,5.05-13.15,4.36-20.51-2.22-38.32-1.62-76.8-3.36-115.13l-1.22.06Q231.54,160.94,203.66,284.22ZM96.64,51.41l-1.33.17c-3.11,65.36-3.58,53.69,25,111l1-.4Q109,106.82,96.64,51.41Z"/><path d="M203.66,284.22q27.87-123.29,55.75-246.57l1.22-.06c.1,1.26.25,2.52.28,3.78q1.09,45.95,2.17,91.89c.16,6.49.31,13,.91,19.46.69,7.36-1.08,13.91-4.36,20.51-17.7,35.68-35.14,71.5-52.68,107.26-.65,1.33-1.44,2.58-2.16,3.87Z" fill="none"/><path d="M96.64,51.41q12.33,55.41,24.65,110.8l-1,.4c-1.09-2.27-2.15-4.56-3.27-6.82-6.8-13.67-13.77-27.26-20.3-41.06a27.05,27.05,0,0,1-2.59-11.38c.06-16.32.61-32.63,1-48.95,0-.94.14-1.88.22-2.82Z" fill="none"/></svg>